# Blender v2.77 (sub 0) OBJ File: ''
# www.blender.org
mtllib utah-teapot-EXPORT.mtl
o Triangle_Quads
v 0 1 0
v 0.5 0 0
v -0.5 0 0

v 0.5 0 0
v 1 -1 0
v 0 -1 0

v -0.5 0 0
v 0 -1 0
v -1 -1 0

v 0.5 0 0
v 0 -1 0
v -0.5 0 0

vt 0.0 0.0
vt 0.0 0.0
vt 0.0 0.0

vt 0.0 0.0
vt 0.0 0.0
vt 0.0 0.0

vt 0.0 0.0
vt 0.0 0.0
vt 0.0 0.0

vt 0.0 0.0
vt 0.0 0.0
vt 0.0 0.0

vn 0.0 0.0 -1.0
vn 0.0 0.0 -1.0
vn 0.0 0.0 -1.0

vn 0.0 0.0 -1.0
vn 0.0 0.0 -1.0
vn 0.0 0.0 -1.0

vn 0.0 0.0 -1.0
vn 0.0 0.0 -1.0
vn 0.0 0.0 -1.0

vn 0.0 0.0 -1.0
vn 0.0 0.0 -1.0
vn 0.0 0.0 -1.0

usemtl Clear_Coat_Plastic
s 1
f 1/1/1 2/2/2 3/3/3
f 4/4/4 5/5/5 6/6/6
f 7/7/7 8/8/8 9/9/9
f 10/10/10 11/11/11 12/12/12
